<svg width="52" height="52" viewBox="0 0 52 52" fill="none" xmlns="http://www.w3.org/2000/svg">
<path d="M26 13C24.393 13 22.8221 13.4765 21.486 14.3693C20.1498 15.2621 19.1084 16.531 18.4935 18.0157C17.8785 19.5003 17.7176 21.134 18.0311 22.7101C18.3446 24.2862 19.1185 25.7339 20.2548 26.8702C21.3911 28.0065 22.8388 28.7804 24.4149 29.0939C25.991 29.4074 27.6247 29.2465 29.1093 28.6315C30.594 28.0166 31.8629 26.9752 32.7557 25.639C33.6485 24.3029 34.125 22.732 34.125 21.125C34.125 18.9701 33.269 16.9035 31.7452 15.3798C30.2215 13.856 28.1549 13 26 13Z" fill="#008BF0"/>
<path d="M26 3.25C21.5005 3.25 17.102 4.58426 13.3608 7.08407C9.61956 9.58387 6.70363 13.1369 4.98174 17.294C3.25985 21.451 2.80932 26.0252 3.68713 30.4383C4.56495 34.8514 6.73167 38.905 9.91332 42.0867C13.095 45.2683 17.1486 47.4351 21.5617 48.3129C25.9748 49.1907 30.549 48.7402 34.706 47.0183C38.8631 45.2964 42.4161 42.3804 44.9159 38.6392C47.4157 34.898 48.75 30.4995 48.75 26C48.7431 19.9684 46.344 14.1859 42.0791 9.92092C37.8141 5.65596 32.0316 3.25688 26 3.25ZM38.987 40.5048C38.9546 38.3733 38.0862 36.3399 36.5689 34.8426C35.0515 33.3453 33.0067 32.504 30.875 32.5H21.125C18.9933 32.504 16.9485 33.3453 15.4311 34.8426C13.9138 36.3399 13.0454 38.3733 13.013 40.5048C10.0662 37.8735 7.98806 34.4092 7.05385 30.5706C6.11965 26.732 6.37341 22.7002 7.78154 19.009C9.18966 15.3179 11.6857 12.1415 14.9392 9.90042C18.1927 7.65938 22.0502 6.45942 26.0008 6.45942C29.9514 6.45942 33.8089 7.65938 37.0624 9.90042C40.3159 12.1415 42.812 15.3179 44.2201 19.009C45.6282 22.7002 45.882 26.732 44.9478 30.5706C44.0136 34.4092 41.9338 37.8735 38.987 40.5048Z" fill="#008BF0"/>
</svg>
