<svg width="54" height="54" viewBox="0 0 54 54" fill="none" xmlns="http://www.w3.org/2000/svg">
<g clip-path="url(#clip0_413_4)">
<path d="M40.0764 50.6334C39.8756 50.7398 39.8925 50.7735 40.0849 50.6756C40.1442 50.6514 40.1985 50.6165 40.2452 50.5727C40.2452 50.5373 40.2452 50.5373 40.0764 50.6334ZM40.4814 50.4141C40.3853 50.4934 40.3852 50.4934 40.5 50.4411C40.5424 50.4212 40.5812 50.3944 40.6148 50.3618C40.6148 50.3162 40.5878 50.3263 40.4814 50.4141ZM40.7447 50.2554C40.6485 50.3348 40.6485 50.3348 40.7633 50.2824C40.8058 50.2622 40.8446 50.2348 40.878 50.2014C40.878 50.1593 40.851 50.1677 40.7447 50.2554ZM41.0113 50.0985C40.9151 50.1778 40.9151 50.1778 41.0265 50.1238C41.0889 50.0901 41.1412 50.0546 41.1412 50.0445C41.1412 50.0023 41.1142 50.0108 41.0113 50.0985ZM41.3708 49.8606C41.1868 49.9838 41.1227 50.0631 41.2914 49.9753C41.4045 49.9061 41.5969 49.7543 41.5631 49.7543C41.4906 49.7813 41.4298 49.8268 41.3691 49.8606H41.3708ZM25.2332 0.0185677C25.11 0.0270052 24.7404 0.0607552 24.4164 0.0877552C16.7417 0.783005 9.56138 4.91401 5.01019 11.2776C2.49508 14.7677 0.860217 18.8138 0.244687 23.0715C0.027 24.5565 0 24.9953 0 27.0084C0 29.0199 0.027 29.4519 0.244687 30.9369C1.7145 41.0805 8.93025 49.5956 18.711 52.7513C20.4711 53.3132 22.3155 53.7013 24.4164 53.9393C25.2332 54.027 28.7651 54.027 29.5819 53.9393C33.2134 53.5343 36.2796 52.6382 39.3137 51.0908C39.7794 50.8545 39.8672 50.7921 39.8047 50.7398C38.3246 48.7832 36.857 46.8172 35.4021 44.8419L31.0871 39.015L25.6821 31.0078C23.8842 28.3268 22.0678 25.6583 20.2331 23.0023C20.2146 23.0023 20.1909 26.5613 20.1808 30.9015C20.1622 38.5037 20.1622 38.8125 20.0661 38.988C19.9738 39.2 19.8086 39.3719 19.6003 39.4723C19.4332 39.5516 19.2831 39.5685 18.4849 39.5685H17.5719L17.334 39.42C17.185 39.3244 17.0639 39.1911 16.983 39.0336L16.8683 38.7956L16.8767 28.2133L16.8953 17.631L17.0623 17.4201C17.169 17.2904 17.3004 17.1831 17.4488 17.1045C17.6698 16.9982 17.7576 16.9813 18.6705 16.9813C19.7421 16.9813 19.9192 17.0235 20.2011 17.3323C22.3906 20.589 24.5614 23.8583 26.7131 27.1401C30.2214 32.4591 35.0106 39.717 37.3646 43.2776L41.6458 49.7559L41.8568 49.6159C43.9142 48.2486 45.7787 46.6112 47.4002 44.7474C50.8014 40.8545 53.0085 36.0637 53.757 30.9488C53.9747 29.4638 54.0017 29.0233 54.0017 27.0118C54.0017 24.9986 53.9747 24.5683 53.757 23.0833C52.2872 12.9398 45.0714 4.42463 35.2907 1.26732C33.4627 0.688372 31.5813 0.294335 29.6747 0.0911302C29.1634 0.0388177 25.6736 -0.0236198 25.2349 0.0219427L25.2332 0.0185677ZM36.2812 16.3485C36.4068 16.4102 36.5188 16.4962 36.6106 16.6017C36.7025 16.7072 36.7724 16.8299 36.8162 16.9628C36.8617 17.1045 36.8702 20.0391 36.8617 26.649L36.8432 36.1395L35.1742 33.5745L33.4952 31.0078V24.1178C33.4952 19.6509 33.5138 17.1467 33.5374 17.0235C33.62 16.741 33.8095 16.5019 34.0656 16.3569C34.2748 16.2506 34.3558 16.2422 35.1911 16.2422C35.9724 16.2422 36.1057 16.2506 36.2812 16.3485Z" fill="#008BF0"/>
</g>
<defs>
<clipPath id="clip0_413_4">
<rect width="54" height="54" fill="white"/>
</clipPath>
</defs>
</svg>
